<?xml version="1.0" standalone="no"?>
<!DOCTYPE svg PUBLIC "-//W3C//DTD SVG 20010904//EN"
 "http://www.w3.org/TR/2001/REC-SVG-20010904/DTD/svg10.dtd">
<svg version="1.0" xmlns="http://www.w3.org/2000/svg"
 width="297.000000pt" height="297.000000pt" viewBox="0 0 297.000000 297.000000"
 preserveAspectRatio="xMidYMid meet">
<metadata>
Created by potrace 1.11, written by Peter Selinger 2001-2013
</metadata>
<g transform="translate(0.000000,297.000000) scale(0.100000,-0.100000)"
fill="#000000" stroke="none">
<path d="M1315 2809 c-118 -21 -166 -33 -259 -65 -469 -162 -819 -575 -901
-1063 -63 -372 28 -752 253 -1056 67 -91 227 -243 324 -308 205 -137 359 -195
628 -233 49 -7 235 -7 295 0 245 30 446 105 638 240 300 210 499 518 566 876
31 164 30 312 0 495 -90 534 -521 978 -1064 1097 -101 22 -393 33 -480 17z
m390 -83 c22 -3 51 -9 65 -12 14 -3 36 -8 50 -11 90 -16 303 -110 400 -176 71
-48 202 -161 253 -219 262 -295 379 -715 306 -1098 -125 -657 -740 -1115
-1404 -1046 -61 6 -70 7 -161 26 -58 12 -187 57 -259 91 -236 109 -463 326
-587 559 -191 357 -201 801 -26 1164 91 189 272 401 433 507 186 123 331 180
535 214 74 12 318 13 395 1z"/>
<path d="M880 1906 l354 -355 0 -646 0 -646 48 48 c328 321 944 949 948 966 3
12 5 117 5 234 l-1 212 106 -3 c59 -1 114 0 123 3 14 5 -9 32 -101 124 -65 64
-123 117 -128 117 -5 0 -86 -78 -181 -172 l-173 -173 -322 323 -323 322 -355
0 -355 0 355 -354z"/>
</g>
</svg>
